<!-- viewBox="0 0 34 34" -->
<svg xmlns="http://www.w3.org/2000/svg">
  <symbol id="icon">
    <g transform="translate(1 1)">
      <circle fill="none" cx="16" cy="16" r="16" stroke="currentColor" stroke-width="2"></circle>
      <path fill="currentColor" fill-rule="nonzero" d="M16.002 11.898A4.091 4.091 0 0011.9 16a4.087 4.087 0 001.198 2.9 4.104 4.104 0 002.904 1.202A4.09 4.09 0 0020.103 16a4.087 4.087 0 00-1.197-2.9 4.104 4.104 0 00-2.904-1.202zm0 6.768A2.67 2.67 0 0113.329 16a2.67 2.67 0 012.673-2.667A2.67 2.67 0 0118.674 16a2.67 2.67 0 01-2.672 2.667zm5.225-6.936a.952.952 0 01-.956.957.956.956 0 110-1.914c.528 0 .956.428.956.957zm2.717.97c-.06-1.28-.354-2.416-1.292-3.352-.936-.935-2.07-1.228-3.352-1.291-1.32-.076-5.28-.076-6.6 0-1.278.059-2.413.352-3.352 1.287-.938.936-1.228 2.073-1.292 3.354-.075 1.32-.075 5.28 0 6.6.06 1.283.354 2.418 1.292 3.354.94.935 2.07 1.228 3.352 1.291 1.32.076 5.28.076 6.6 0 1.281-.06 2.416-.352 3.352-1.291.935-.935 1.228-2.072 1.292-3.353.075-1.321.075-5.277 0-6.598zm-1.706 8.016a2.7 2.7 0 01-1.521 1.522c-1.053.417-3.552.32-4.715.32-1.164 0-3.666.094-4.715-.32a2.7 2.7 0 01-1.521-1.521c-.418-1.054-.321-3.554-.321-4.717 0-1.164-.093-3.667.321-4.717a2.7 2.7 0 011.52-1.52c1.054-.418 3.552-.321 4.716-.321 1.163 0 3.666-.094 4.715.32a2.7 2.7 0 011.52 1.521c.418 1.054.322 3.554.322 4.717 0 1.164.096 3.667-.321 4.717v-.001z"></path>
    </g>
  </symbol>
</svg>