<!-- viewBox="0 0 24 24" -->
<svg xmlns="http://www.w3.org/2000/svg">
  <symbol id="icon">
    <path d="M24 24.015h-24s.835-.809 4-1.398v-2.036c-2.281-.463-4-2.482-4-4.899 0-1.302.018-1.022 4.23-11.154.013 0 .186-.513.77-.513.581 0 .757.511.771.511.734 1.761 1.342 3.2 1.844 4.387.751-1.803 1.851-4.409 3.461-8.283.016 0 .223-.615.924-.615.697 0 .909.613.925.613 1.621 3.89 2.729 6.472 3.484 8.261.497-1.187 1.097-2.62 1.821-4.361.013 0 .186-.513.77-.513.581 0 .757.511.771.511 3.879 9.309 4.229 9.622 4.229 11.156 0 2.417-1.719 4.436-4 4.899v2.036c3.161.588 3.998 1.396 4 1.398zm-8.71-4.983c-.68.447-1.456.759-2.29.9v2.09c1.993.028 3.641.14 5 .297v-1.738c-1.065-.217-2.008-.772-2.71-1.549zm-6.58 0c-.702.777-1.645 1.332-2.71 1.549v1.738c1.359-.157 3.007-.269 5-.297v-2.09c-.834-.141-1.61-.453-2.29-.9zm-2.157-7.503c-.102-.239-1.102-2.597-1.55-3.659l-.974 2.328c-2.029 4.843-2.029 4.867-2.029 5.484 0 2.64 2.433 3.062 3 3.062.377 0 1.521-.184 2.282-1.023-.803-1.021-1.282-2.308-1.282-3.706 0-.743.005-1.056.553-2.486zm10.163 6.194c.765.843 1.916 1.021 2.284 1.021.583 0 3-.44 3-3.062 0-.702-.1-.978-1.773-4.921l-1.224-2.891-1.525 3.645c.446 1.198.522 1.716.522 2.5 0 1.399-.48 2.687-1.284 3.708zm-4.713-14.116c.732 1.744 1.337 3.169 1.836 4.344 2.06 4.852 2.161 5.135 2.161 6.064 0 1.961-1.401 3.619-3.332 3.944-.613.104-.834.084-1.336 0-1.931-.324-3.332-1.983-3.332-3.944 0-.833 0-.849 2.46-6.72.437-1.043.948-2.261 1.543-3.688z"/>
  </symbol>
</svg>