<?xml version="1.0" encoding="utf-8"?>
<!-- Generator: Adobe Illustrator 24.0.2, SVG Export Plug-In . SVG Version: 6.00 Build 0)  -->
<svg version="1.1" id="Layer_1" xmlns="http://www.w3.org/2000/svg" xmlns:xlink="http://www.w3.org/1999/xlink" x="0px" y="0px"
	 viewBox="0 0 500 500" style="enable-background:new 0 0 500 500;" xml:space="preserve">
<style type="text/css">
	.st0{clip-path:url(#SVGID_2_);}
	.st1{fill:#E8E1D0;}
	.st2{fill:#FBD676;}
	.st3{clip-path:url(#SVGID_4_);}
	.st4{fill:#B7B7B7;}
	.st5{clip-path:url(#SVGID_6_);}
	.st6{fill:#9BD342;}
	.st7{clip-path:url(#SVGID_8_);fill:#FAFAFA;stroke:#FFFFFF;stroke-width:8;stroke-miterlimit:10;}
	.st8{clip-path:url(#SVGID_10_);}
	.st9{fill:#F58403;}
	.st10{fill:#FFFFFF;}
	.st11{clip-path:url(#SVGID_12_);}
	.st12{fill:none;stroke:#595959;stroke-width:3;stroke-miterlimit:10;}
	.st13{fill:none;stroke:#595959;stroke-width:3;stroke-miterlimit:10;stroke-dasharray:8.0206,4.0103;}
	.st14{fill:none;stroke:#595959;stroke-width:3;stroke-miterlimit:10;stroke-dasharray:8.1715,4.0858;}
</style>
<g id="Object">
	<g>
		<g>
			<defs>
				<rect id="SVGID_1_" width="500" height="500"/>
			</defs>
			<clipPath id="SVGID_2_">
				<use xlink:href="#SVGID_1_"  style="overflow:visible;"/>
			</clipPath>
			<g class="st0">
				<g>
					
						<rect x="127.9" y="4.5" transform="matrix(0.1126 -0.9936 0.9936 0.1126 140.5356 172.3488)" class="st1" width="77.8" height="6"/>
					<polygon class="st1" points="187.3,46.5 181.3,45.9 175.6,101.9 102.6,98.6 102.3,104.6 181,108.1 					"/>
					<path class="st1" d="M475.2,328l43-140.1l34.1,9l1.5-5.8l-84.5-22.2l13.6-56.5l33-120.6l0.4-1.4l-5.8-1.6l-33.4,122.1
						l-13.6,56.4l-26.5-6.9l54.1-190.7l-5.8-1.6l-54.1,190.8l-61.3-16.1l16.4-59.4l-5.8-1.6l-16.4,59.5l-56.8-14.9l-24.1-6.7
						l43.1-141.9l-5.7-1.7l-43.1,142.1l-17.2-4.8L305-24.8l-5.7-1.8l-44.8,138.4l-27.9-7.7l-28.4,92L94,209l0.7,6l101.5-12.6
						L180.9,252l5.7,1.8l15.8-51.3l45.4,13.1L233,264.7l5.7,1.7l14.9-49.3l88.8,25.5l25.9-94.1l93.6,24.5l-40.7,138.9l-22,73.9
						l-226.4-61.6c0.7-2.6,1.1-5.3,1.1-8.1c0-12.1-7.4-23-18.5-27.7l2.9-11.3l190.4,55.5l1.7-5.8l-190.6-55.6l6.6-26l-5.8-1.5
						l-10.9,42.8c-1.9-0.4-3.8-0.6-5.7-0.6c-12.5,0-23.5,7.7-28,19.2L-9.7,276.8l-20.9,67.3l5.7,1.8l19.3-62l120.1,27.5
						c-0.3,1.6-0.4,3.3-0.4,4.9c0,11.8,6.8,22.3,17.5,27.2L76.4,522.9l5.7,1.8l55.2-179.2c2.2,0.5,4.5,0.8,6.8,0.8
						c11.2,0,21.5-6.3,26.6-16.3l226.9,61.7l-19.4,65.4l5.8,1.7l19.5-65.5l58.3,15.9l-30.9,107l-0.4,1.4l5.8,1.7l31.4-108.5
						l77.5,21.1l1.6-5.8l-77.4-21l22-76l-5.8-1.7l-22,76.1l-58.3-15.8l21.9-73.8l40.7-139.1l44.6,11.7l-42.9,139.9L475.2,328z
						 M255.4,211.5l26.1-86l24.3,6.7l56.8,14.9l-24.3,88.2L255.4,211.5z M230.8,204.4l27.6-85.3l17.3,4.8l-26.1,86L230.8,204.4z
						 M252.6,117.5L225,202.7l-20.8-6l26.4-85.4L252.6,117.5z M144,340.3c-13.2,0-23.9-10.7-23.9-23.9s10.7-23.9,23.9-23.9
						s23.9,10.7,23.9,23.9S157.3,340.3,144,340.3z"/>
					<polygon class="st1" points="93.6,248.8 10.1,231.4 27.8,168.9 22.1,167.3 2.6,236 92.4,254.7 					"/>
					
						<rect x="-22.5" y="119.5" transform="matrix(0.3086 -0.9512 0.9512 0.3086 -99.3095 108.288)" class="st1" width="94.7" height="6"/>
					<polygon class="st1" points="216.4,445.2 214.8,451 305.2,475.7 423.8,528.4 425.1,529 427.6,523.5 307.5,470.1 					"/>
				</g>
				<path class="st2" d="M550.9,349.2l1.5-5.8l-190.5-49.9c19.7-67.3,40.5-138.3,57.4-196l128.2,36.4l1.6-5.8L421,91.7
					C440.5,25,454.4-22.7,454.6-23.7l-5.9-1.3c-0.5,1.9-14.3,49.2-33.5,115.1l-86.5-24.6l29.9-100.3l-5.8-1.7L322.9,63.9L110.7,34.5
					l3.9-58.6l-6-0.4l-7.5,112L9.5,70.2l-54.2-35.6l-3.3,5L7.2,75.8l93.6,17.7l-6.1,90.4l-130.3-32.5l-1.5,5.8L94.3,190l-2.9,44
					L69.7,367.2C-15.2,343.8-58.3,332-59,332v3.4l-0.5,2.5c2.5,0.5,55.4,15.1,128.2,35.2L24.1,538.9l5.8,1.6l44.6-165.7
					c44.7,12.3,96.4,26.6,148.2,41L193.6,525l5.8,1.5l29.1-109.1c28.4,7.9,56.8,15.7,84.1,23.3c-13.1,44.7-21.8,74.3-22.1,75.6
					l5.8,1.7c3.2-10.9,11.3-38.4,22.2-75.7c105.1,29.1,191.7,53.1,193.9,53.7l1.6-5.8c-71.4-19.8-136-37.7-194-53.8
					c11.3-38.6,25.4-86.7,40.2-137.2L550.9,349.2z M413.5,95.8c-16.9,57.8-37.7,129-57.4,196.2l-88-23.1L327,71.2L413.5,95.8z
					 M321.1,69.8l-58.9,197.7L97.8,227.3l12.5-186.8L321.1,69.8z M75.5,368.8l21.8-134v-0.1l0.1-1.3l163.2,39.8l-36.4,136.7
					C165.6,393.7,116,380,75.5,368.8z M314.2,434.8c-29.9-8.3-57.9-16-84.2-23.3l36.4-136.8l88,23.1
					C339.5,348.5,325.4,396.7,314.2,434.8z"/>
			</g>
		</g>
		<g>
			<defs>
				<rect id="SVGID_3_" width="500" height="500"/>
			</defs>
			<clipPath id="SVGID_4_">
				<use xlink:href="#SVGID_3_"  style="overflow:visible;"/>
			</clipPath>
			<g class="st3">
				<g>
					
						<rect x="127.9" y="4.5" transform="matrix(0.1126 -0.9936 0.9936 0.1126 140.5356 172.3488)" class="st4" width="77.8" height="6"/>
					<polygon class="st4" points="187.3,46.5 181.3,45.9 175.6,101.9 102.6,98.6 102.3,104.6 181,108.1 					"/>
					<path class="st4" d="M475.2,328l43-140.1l34.1,9l1.5-5.8l-84.5-22.2l13.6-56.5l33-120.6l0.4-1.4l-5.8-1.6l-33.4,122.1
						l-13.6,56.4l-26.5-6.9l54.1-190.7l-5.8-1.6l-54.1,190.8l-61.3-16.1l16.4-59.4l-5.8-1.6l-16.4,59.5l-56.8-14.9l-24.1-6.7
						l43.1-141.9l-5.7-1.7l-43.1,142.1l-17.2-4.8L305-24.8l-5.7-1.8l-44.8,138.4l-27.9-7.7l-28.4,92L94,209l0.7,6l101.5-12.6
						L180.9,252l5.7,1.8l15.8-51.3l45.4,13.1L233,264.7l5.7,1.7l14.9-49.3l88.8,25.5l25.9-94.1l93.6,24.5l-40.7,138.9l-22,73.9
						l-226.4-61.6c0.7-2.6,1.1-5.3,1.1-8.1c0-12.1-7.4-23-18.5-27.7l2.9-11.3l190.4,55.5l1.7-5.8l-190.6-55.6l6.6-26l-5.8-1.5
						l-10.9,42.8c-1.9-0.4-3.8-0.6-5.7-0.6c-12.5,0-23.5,7.7-28,19.2L-9.7,276.8l-20.9,67.3l5.7,1.8l19.3-62l120.1,27.5
						c-0.3,1.6-0.4,3.3-0.4,4.9c0,11.8,6.8,22.3,17.5,27.2L76.4,522.9l5.7,1.8l55.2-179.2c2.2,0.5,4.5,0.8,6.8,0.8
						c11.2,0,21.5-6.3,26.6-16.3l226.9,61.7l-19.4,65.4l5.8,1.7l19.5-65.5l58.3,15.9l-30.9,107l-0.4,1.4l5.8,1.7l31.4-108.5
						l77.5,21.1l1.6-5.8l-77.4-21l22-76l-5.8-1.7l-22,76.1l-58.3-15.8l21.9-73.8l40.7-139.1l44.6,11.7l-42.9,139.9L475.2,328z
						 M255.4,211.5l26.1-86l24.3,6.7l56.8,14.9l-24.3,88.2L255.4,211.5z M230.8,204.4l27.6-85.3l17.3,4.8l-26.1,86L230.8,204.4z
						 M252.6,117.5L225,202.7l-20.8-6l26.4-85.4L252.6,117.5z M144,340.3c-13.2,0-23.9-10.7-23.9-23.9s10.7-23.9,23.9-23.9
						s23.9,10.7,23.9,23.9S157.3,340.3,144,340.3z"/>
					<polygon class="st4" points="93.6,248.8 10.1,231.4 27.8,168.9 22.1,167.3 2.6,236 92.4,254.7 					"/>
					
						<rect x="-22.5" y="119.5" transform="matrix(0.3086 -0.9512 0.9512 0.3086 -99.3095 108.288)" class="st4" width="94.7" height="6"/>
					<polygon class="st4" points="216.4,445.2 214.8,451 305.2,475.7 423.8,528.4 425.1,529 427.6,523.5 307.5,470.1 					"/>
				</g>
				<path class="st4" d="M550.9,349.2l1.5-5.8l-190.5-49.9c19.7-67.3,40.5-138.3,57.4-196l128.2,36.4l1.6-5.8L421,91.7
					C440.5,25,454.4-22.7,454.6-23.7l-5.9-1.3c-0.5,1.9-14.3,49.2-33.5,115.1l-86.5-24.6l29.9-100.3l-5.8-1.7L322.9,63.9L110.7,34.5
					l3.9-58.6l-6-0.4l-7.5,112L9.5,70.2l-54.2-35.6l-3.3,5L7.2,75.8l93.6,17.7l-6.1,90.4l-130.3-32.5l-1.5,5.8L94.3,190l-2.9,44
					L69.7,367.2C-15.2,343.8-58.3,332-59,332v3.4l-0.5,2.5c2.5,0.5,55.4,15.1,128.2,35.2L24.1,538.9l5.8,1.6l44.6-165.7
					c44.7,12.3,96.4,26.6,148.2,41L193.6,525l5.8,1.5l29.1-109.1c28.4,7.9,56.8,15.7,84.1,23.3c-13.1,44.7-21.8,74.3-22.1,75.6
					l5.8,1.7c3.2-10.9,11.3-38.4,22.2-75.7c105.1,29.1,191.7,53.1,193.9,53.7l1.6-5.8c-71.4-19.8-136-37.7-194-53.8
					c11.3-38.6,25.4-86.7,40.2-137.2L550.9,349.2z M413.5,95.8c-16.9,57.8-37.7,129-57.4,196.2l-88-23.1L327,71.2L413.5,95.8z
					 M321.1,69.8l-58.9,197.7L97.8,227.3l12.5-186.8L321.1,69.8z M75.5,368.8l21.8-134v-0.1l0.1-1.3l163.2,39.8l-36.4,136.7
					C165.6,393.7,116,380,75.5,368.8z M314.2,434.8c-29.9-8.3-57.9-16-84.2-23.3l36.4-136.8l88,23.1
					C339.5,348.5,325.4,396.7,314.2,434.8z"/>
			</g>
		</g>
		<g>
			<defs>
				<rect id="SVGID_5_" width="500" height="500"/>
			</defs>
			<clipPath id="SVGID_6_">
				<use xlink:href="#SVGID_5_"  style="overflow:visible;"/>
			</clipPath>
			<g class="st5">
				<path class="st1" d="M242.6,119.3l-4.9-1.4c-2.3-0.6-4.6,0.7-5.3,2.9l-21.2,68.6c-0.7,2.3,0.6,4.8,2.9,5.4l4,1.1
					c2.2,0.6,4.6-0.6,5.3-2.8l22.1-68.4C246.3,122.5,244.9,120,242.6,119.3z"/>
				<path class="st1" d="M270.3,111.5c2.3,0.6,4.6-0.7,5.3-2.9L287,71.1l-8-1.1l-11.7,36C266.6,108.3,268,110.8,270.3,111.5z"/>
				<path class="st1" d="M265.4,125.7c-2.2-0.6-4.6,0.6-5.3,2.8l-22.2,68.6c-0.8,2.3,0.6,4.8,2.9,5.5l1.7,0.5
					c2.3,0.7,4.6-0.6,5.3-2.9l20.9-69c0.7-2.3-0.6-4.8-3-5.4L265.4,125.7z"/>
				<path class="st1" d="M376,137.7c-0.3,1.1,0.3,2.1,1.4,2.4l13.9,3.6c1,0.3,2.1-0.3,2.4-1.3c1.8-6.3,3.7-12.5,5.5-18.6l-17.9-4.9
					L376,137.7z"/>
				<path class="st1" d="M405.5,101.8c0.3-1-0.3-2.1-1.3-2.4l-14.4-4.1c-1-0.3-2.1,0.3-2.4,1.4L382,116l17.9,4.9
					C401.8,114.4,403.7,108,405.5,101.8z"/>
				<polygon class="st1" points="313.4,74.7 302,73.2 288.9,116.6 300,119.7 				"/>
				<path class="st1" d="M317.4,124.4l41.7,10.9c1,0.3,2.1-0.3,2.4-1.4l5.2-19l-43-11.7L317.4,124.4z"/>
				<path class="st1" d="M372.9,92.5c0.3-1-0.3-2.1-1.4-2.4l-38.7-11c-1-0.3-2.1,0.3-2.4,1.3l-5.9,19.9l43,11.7L372.9,92.5z"/>
				<path class="st1" d="M204.2,212.1l-10.1,32.5l37.5,9.1l9.4-30.9c0.7-2.3-0.6-4.7-2.9-5.4l-28.5-8.2
					C207.2,208.5,204.9,209.8,204.2,212.1z"/>
				<path class="st6" d="M412.5,319.4l-47.4-12.7c-0.4-0.1-0.9,0.1-1,0.6l-17.3,58.9c-0.1,0.4,0.1,0.9,0.6,1l47.1,13.1
					c0.4,0.1,0.9-0.1,1-0.6l17.6-59.3C413.2,320,413,319.5,412.5,319.4z"/>
				<path class="st1" d="M346.1,301.7L270.7,282l-4.3,16l74.4,21.7c0.4,0.1,0.9-0.1,1-0.6l4.8-16.3
					C346.8,302.3,346.5,301.9,346.1,301.7z"/>
				<path class="st1" d="M246.7,409.9c20.2,5.6,41.3,11.4,63.5,17.6l14.9-50.8L251,356.5L240,398
					C238.5,403.1,241.5,408.5,246.7,409.9z"/>
				<path class="st1" d="M411.6,384.7l48,13c0.4,0.1,0.9-0.1,1-0.6l17.3-60c0.1-0.4-0.1-0.9-0.6-1l-47.6-12.5
					c-0.4-0.1-0.9,0.1-1,0.6L411,383.6C410.9,384.1,411.1,384.5,411.6,384.7z"/>
				<path class="st1" d="M187.9,214c0.9-3-1.5-6-4.7-5.6l-75.2,9.3c-2.1,0.3-3.6,1.9-3.8,4l-0.1,0.8l75.4,18.4L187.9,214z"/>
				<path class="st1" d="M126.2,345.8c-10.2-6.2-16.6-17.2-16.6-29.5c0-0.5,0-0.9,0-1.4L91,310.7l-8.8,53.8
					c11.1,3.1,22.8,6.3,35.2,9.7L126.2,345.8z"/>
				<path class="st1" d="M222.5,393l11-41.2l-60.7-16.5c-6.3,9.6-17.1,15.5-28.8,15.5c-1.2,0-2.4-0.1-3.6-0.2l-8.5,27.6
					c23.9,6.6,50.1,13.9,78.6,21.7C215.7,401.3,221.1,398.2,222.5,393z"/>
				<polygon class="st1" points="29.4,180 15.7,228 47.3,234.6 55,186.4 				"/>
				<path class="st1" d="M83.9,242.2l1.4-8.9l2.4-35.1c0.1-2.1-1.2-4-3.3-4.5l-26.6-6.6l-7.6,48.1L83.9,242.2z"/>
				<polygon class="st1" points="81.5,257 6,241.3 6,275.8 75.9,291.8 				"/>
				<polygon class="st1" points="6,174.2 6,207.4 14.8,176.4 				"/>
				<path class="st1" d="M455.8,178.3c0.3-1.1-0.3-2.2-1.4-2.4l-46.3-12.1c-1-0.3-2.1,0.3-2.4,1.3c-2.9,9.9-5.8,19.9-8.8,30.1
					l50.2,12.6L455.8,178.3z"/>
				<path class="st1" d="M446.3,210.6L396.1,198c-4.8,16.6-9.8,33.4-14.7,50.2l49.7,14.2L446.3,210.6z"/>
				<path class="st1" d="M369.6,288.4c-0.1,0.4,0.1,0.9,0.6,1l48.5,12.7c0.4,0.1,0.9-0.1,1-0.6l10.6-36.3L380.6,251
					C376.9,263.6,373.3,276.1,369.6,288.4z"/>
				<path class="st1" d="M113.5,300.4c5.9-11.3,17.5-18.5,30.5-18.5c0.8,0,1.6,0,2.4,0.1l7.3-28.7l-51.3-12.5l-9,55.1L113.5,300.4z"
					/>
				<path class="st1" d="M494,187.7c0-0.9-0.6-1.7-1.5-1.9l-19.8-5.2c-1-0.3-2.1,0.3-2.4,1.3l-8.6,29.4l32.3,8.1V187.7z"/>
				<path class="st1" d="M494,230.7v-8.2l-33.1-8.3l-15.3,52.4l34.5,9.9l13.8-45.2C494,231.1,494,230.9,494,230.7z"/>
				<path class="st1" d="M434.2,305.4c-0.1,0.4,0.1,0.9,0.6,1l32.7,8.6c0.4,0.1,0.9-0.1,1-0.6l10.8-35.1l-34.5-9.9L434.2,305.4z"/>
				<path class="st1" d="M342.2,382.2l-14.4,49.3c-0.1,0.4,0.1,0.9,0.6,1l47.7,13.2c0.4,0.1,0.9-0.1,1-0.6l14.7-49.5
					c0.1-0.4-0.1-0.9-0.6-1l-48-13.1C342.7,381.5,342.3,381.7,342.2,382.2z"/>
				<path class="st1" d="M230.2,434.2c-1.4,5.2,1.7,10.5,6.9,11.9l62.6,17.1l5.4-18.5c-20.5-5.7-41.6-11.5-62.9-17.4
					C237,425.9,231.6,429,230.2,434.2z"/>
				<path class="st1" d="M356.5,152.2c0.3-1.1-0.3-2.1-1.4-2.4l-42-11l-9.8,32.9l44.7,11.2L356.5,152.2z"/>
				<path class="st1" d="M289.9,216.7l43.3,12.5c1,0.3,2.1-0.3,2.4-1.4l11.6-42.1l-44.8-11.2L289.9,216.7z"/>
				<path class="st1" d="M329.5,361.5l7.7-26.4c0.1-0.4-0.1-0.9-0.6-1l-74.1-21.6l-7.9,29.5l73.7,20.1
					C328.9,362.2,329.3,361.9,329.5,361.5z"/>
				<path class="st1" d="M290,132.5c-3.1-0.8-6.2,0.9-7.1,3.9l-20.1,66.2c-1,3.2,0.9,6.6,4.1,7.5l0,0c3.2,0.9,6.5-0.9,7.4-4.1
					l19.7-66.3C295,136.6,293.1,133.4,290,132.5z"/>
				<polygon class="st1" points="258.1,260.2 268.3,226.1 256.7,222.8 246.2,257.3 				"/>
				<polygon class="st1" points="165.3,268.5 249.2,292.9 253.3,277.6 168.3,256.8 				"/>
				<path class="st6" d="M144,335.8c10.7,0,19.4-8.7,19.4-19.4S154.7,297,144,297s-19.4,8.7-19.4,19.4S133.3,335.8,144,335.8z"/>
				<path class="st1" d="M388.3,160.5c0.3-1.1-0.3-2.1-1.4-2.4l-13.6-3.6c-1-0.3-2.1,0.3-2.4,1.4l-8.4,30.6l16.9,4.2
					C382.5,180.5,385.4,170.5,388.3,160.5z"/>
				<path class="st1" d="M346.1,246.4c-0.3,1-1.4,1.7-2.4,1.4l-58-16.7l-10,33.6l75.6,19.8c0.4,0.1,0.9-0.1,1-0.6
					c8.8-29.9,17.7-60.5,26.4-90.3l-16.9-4.2L346.1,246.4z"/>
				<path class="st1" d="M237.4,337.3l7.9-29.9L161.6,283l-0.8,3.2c10.8,6,17.7,17.5,17.7,30.1c0,1.6-0.1,3.2-0.3,4.8L237.4,337.3z"
					/>
				<path class="st1" d="M435.4,480.9c-31.5-8.7-70.6-19.6-113-31.3l-5.8,19.7L372,494c0.1,0,0.2,0.1,0.3,0.1h59.5
					c0.4,0,0.7-0.2,0.8-0.6l3.3-11.5C436.1,481.4,435.9,481,435.4,480.9z"/>
				<path class="st1" d="M455.3,412.1L407.2,399c-0.4-0.1-0.9,0.1-1,0.6l-14.7,49.5c-0.1,0.4,0.1,0.9,0.6,1l48.4,13.4
					c0.4,0.1,0.9-0.1,1-0.6l14.4-49.9C456,412.7,455.8,412.2,455.3,412.1z"/>
				<path class="st1" d="M493.4,422.5l-22-6c-0.4-0.1-0.9,0.1-1,0.6L455.9,467c-0.1,0.4,0.1,0.9,0.6,1l36.5,10.1
					c0.5,0.1,1-0.2,1-0.8v-54.1C494,422.9,493.8,422.6,493.4,422.5z"/>
				<path class="st1" d="M37.5,298.4L6,291.2v52.3c8.1,2.2,17,4.7,26.7,7.3L37.5,298.4z"/>
				<path class="st1" d="M64.8,359.6l8.6-53l-33-7.6l-4.9,52.5C44.7,354.1,54.4,356.8,64.8,359.6z"/>
				<polygon class="st1" points="78.7,382.1 48.6,494 80.5,494 112.1,391.4 				"/>
				<path class="st1" d="M221.3,467.6l-3.8,14.1c-1.6,6.2,3,12.3,9.4,12.3h63.7l4.8-16.3l-62.1-17
					C228.1,459.3,222.7,462.4,221.3,467.6z"/>
				<path class="st1" d="M126.6,395.4L96.2,494h52.4c5.6-31.1,12.4-69.3,15.8-88.2C151.6,402.3,139,398.8,126.6,395.4z"/>
				<path class="st1" d="M206.1,417.3c-13-3.6-25.9-7.2-38.7-10.7c-0.4,2.2-0.8,4.5-1.3,7.1c-2,11.5-4.8,26.8-7.5,42.1
					c-2.4,13.6-4.9,27.2-6.8,38.1h36.4c4.4,0,8.3-3,9.4-7.2l15.3-57.5C214.3,424.1,211.2,418.8,206.1,417.3z"/>
				<path class="st1" d="M331.8,492.4l-19.4-8.6l-3,10.2h22.1C332.4,494,332.6,492.8,331.8,492.4z"/>
				<path class="st1" d="M493.4,340.4c-0.4-0.1-0.9,0.1-1,0.6L475,401c-0.1,0.4,0.1,0.9,0.6,1l17.4,4.7c0.5,0.1,1-0.3,1-0.8v-64.8
					C494,340.8,493.7,340.5,493.4,340.4z"/>
				<path class="st1" d="M477.1,492.4l-25.6-7.1c-0.4-0.1-0.9,0.1-1,0.6l-2,7.1c-0.2,0.5,0.2,1.1,0.8,1.1h27.6
					C477.8,494,478,492.6,477.1,492.4z"/>
				<polygon class="st1" points="50.2,71.8 50.2,6 6,6 6,60.7 11.8,64.5 				"/>
				<path class="st1" d="M90.8,79.4c2.5,0.5,4.9-1.4,5.1-4l4.3-64.9C100.5,8.1,98.5,6,96,6H53.2v66.3L90.8,79.4z"/>
				<path class="st1" d="M6,362.1V494h24l31.4-116.7C41,371.7,22.3,366.6,6,362.1z"/>
				<path class="st1" d="M460.4,94.6c-0.3,1,0.3,2.1,1.3,2.4l11.6,3.3c1,0.3,2.1-0.3,2.4-1.4l12.2-44.5l-14.7-5L460.4,94.6z"/>
				<path class="st1" d="M493.9,32.3c0-0.2,0.1-0.3,0.1-0.5V8c0-1.1-0.9-2-2-2h-5c-0.9,0-1.6,0.6-1.9,1.4L474,46.5l14.6,5
					L493.9,32.3z"/>
				<path class="st1" d="M492.4,287.4l-9.4,30.7c-0.1,0.4,0.1,0.9,0.6,1l9.4,2.5c0.5,0.1,1-0.3,1-0.8v-33.2
					C494,286.7,492.7,286.5,492.4,287.4z"/>
				<path class="st1" d="M151.8,34.1c2.4,0.3,4.6-1.4,4.9-3.8l2.2-19.5c0.3-2.6-1.7-4.8-4.3-4.8H146c-0.3,7.5-0.7,16.9-0.9,27.2
					L151.8,34.1z"/>
				<path class="st1" d="M122.7,6c-2.3,0-4.2,1.8-4.3,4l-1,15.2c-0.2,2.3,1.5,4.3,3.7,4.6l21,2.9c0.3-9.8,0.6-19.1,1-26.7H122.7z"/>
				<polygon class="st1" points="28.8,86 6,81.7 6,155.6 6.2,155.7 				"/>
				<path class="st1" d="M338.1,61.9l71.2,20.2c1,0.3,2.1-0.3,2.4-1.3c3.5-12.1,6.9-23.5,10-34.1l-76.8-14.6l-8.1,27.3
					C336.4,60.5,337,61.6,338.1,61.9z"/>
				<path class="st1" d="M432.8,8.5c0.4-1.3-0.6-2.5-1.9-2.5h-76.8c-0.9,0-1.6,0.6-1.9,1.4l-6.5,21.8l76.8,14.6
					C426.4,30.4,429.9,18.5,432.8,8.5z"/>
				<path class="st1" d="M440,111.6c0.3-1-0.3-2.1-1.3-2.4l-13.4-3.8c-1-0.3-2.1,0.3-2.4,1.3c-1.8,6.2-3.7,12.5-5.5,18.9l17.4,4.7
					L440,111.6z"/>
				<path class="st1" d="M411.1,146.9c-0.3,1.1,0.3,2.2,1.4,2.4l13.8,3.6c1,0.3,2.1-0.3,2.4-1.4l5.2-18.3l-17.4-4.7
					C414.7,134.5,412.9,140.6,411.1,146.9z"/>
				<path class="st1" d="M491.5,105.5c1.2,0.4,2.5-0.6,2.5-1.9c0-2.3-3.2-2.7-3.8-0.5l0,0C489.9,104.1,490.5,105.2,491.5,105.5
					L491.5,105.5z"/>
				<path class="st1" d="M443.2,155.3c-0.3,1.1,0.3,2.1,1.4,2.4l13.7,3.6c1.1,0.3,2.1-0.4,2.4-1.4l4.4-18.2l-16.7-4.6L443.2,155.3z"
					/>
				<path class="st1" d="M470.3,120.1c0.2-1-0.4-2.1-1.4-2.3l-12.1-3.4c-1-0.3-2.1,0.3-2.4,1.3l-5.3,18.6l16.6,4.5L470.3,120.1z"/>
				<path class="st1" d="M333.1,8.5c0.4-1.3-0.6-2.5-1.9-2.5h-8.8l-15.1,49.7l11.3,1.6L333.1,8.5z"/>
				<path class="st1" d="M436.9,58.5l16.8,4.8l10-35.1L447.3,23C444.3,33.4,440.8,45.3,436.9,58.5z"/>
				<path class="st1" d="M469.2,8.5c0.4-1.2-0.6-2.5-1.9-2.5h-13.6c-0.9,0-1.6,0.6-1.9,1.4c-1.1,3.9-2.4,8.1-3.7,12.7l16.3,5.1
					L469.2,8.5z"/>
				<path class="st1" d="M429,85.7c-0.3,1,0.3,2.1,1.3,2.4l13.2,3.8c1,0.3,2.1-0.3,2.4-1.3l6.9-24.4L436,61.4
					C433.8,69.1,431.5,77.2,429,85.7z"/>
				<path class="st6" d="M110.6,202.4l81.3-10.1c1.7-0.2,3.1-1.4,3.6-3l26.8-86.8c0.7-2.2,3-3.5,5.3-2.9l19.9,5.5
					c2.2,0.6,4.6-0.6,5.3-2.8l9.6-29.5c0.8-2.6-0.9-5.2-3.5-5.6l-63.7-8.9c-2.4-0.3-4.6,1.4-4.9,3.8l-4.7,46.6
					c-0.2,2.3-2.2,4-4.5,3.9l-65.1-2.9c-2.3-0.1-4.3,1.7-4.5,4l-5.6,84C105.6,200.5,107.9,202.7,110.6,202.4z"/>
				<polygon class="st1" points="306.7,6 299.7,6 284.7,52.6 292.3,53.6 				"/>
				<path class="st1" d="M117.1,94.8l23.6,1.1c0.2-11.5,0.5-28.1,0.8-45L120.4,48c-2.5-0.3-4.7,1.5-4.9,4L113,90.1
					C112.8,92.6,114.7,94.6,117.1,94.8z"/>
				<path class="st1" d="M167.5,97c2.3,0.1,4.3-1.6,4.5-3.9l3.4-33.4c0.2-2.3-1.4-4.4-3.7-4.7l-27.1-3.8c-0.4,15-0.6,30.6-0.9,44.7
					L167.5,97z"/>
				<path class="st1" d="M84.2,175.1c2.6,0.7,5.2-1.2,5.4-3.9l1.8-27.4l-60.6-15.3l-10,30.8L84.2,175.1z"/>
				<path class="st1" d="M94.2,102.3c0.1-2.2-1.4-4.1-3.5-4.5l-43.2-8.2c-2.1-0.4-4.2,0.8-4.9,2.9l-10.8,33.2l59.9,15.1L94.2,102.3z
					"/>
				<path class="st1" d="M175.2,37.4L266,50c2.1,0.3,4.1-1,4.7-3L284,6H178.4c-2.2,0-4,1.7-4.3,3.8l-2.6,22.8
					C171.2,34.9,172.9,37,175.2,37.4z"/>
				<path class="st1" d="M476.6,166.1l14.9,3.9c1.2,0.3,2.5-0.6,2.5-1.9v-18.5l-14.4-3.9l-4.4,18.1
					C475,164.8,475.6,165.8,476.6,166.1z"/>
				<path class="st1" d="M494,126.4c0-0.9-0.6-1.6-1.4-1.9l-5.4-1.5c-1.1-0.3-2.2,0.3-2.4,1.4l-4.4,18.4l13.7,3.7v-20.1H494z"/>
			</g>
		</g>
		<g>
			<defs>
				<rect id="SVGID_7_" width="500" height="500"/>
			</defs>
			<clipPath id="SVGID_8_">
				<use xlink:href="#SVGID_7_"  style="overflow:visible;"/>
			</clipPath>
			<polygon class="st7" points="333.7,30.2 332.6,31.2 322.9,63.9 304.6,125.5 262.3,267.4 224.2,409.9 93.5,373.9 92.5,379.7 
				228.5,417.3 266.5,274.7 268.1,268.9 336.4,39.4 339.2,32.9 			"/>
		</g>
		<g>
			<defs>
				<rect id="SVGID_9_" width="500" height="500"/>
			</defs>
			<clipPath id="SVGID_10_">
				<use xlink:href="#SVGID_9_"  style="overflow:visible;"/>
			</clipPath>
			<g class="st8">
				<path class="st9" d="M83.1,395.9l-10.8-18.7c-4.8-8.3,1.2-18.7,10.8-18.7l0,0c9.6,0,15.6,10.4,10.8,18.7L83.1,395.9z"/>
				<g>
					<polygon class="st10" points="81.7,376.3 77.4,372.1 78.9,370.5 81.7,373.3 88.6,366.4 90.1,367.9 					"/>
				</g>
			</g>
		</g>
		<g>
			<defs>
				<rect id="SVGID_11_" width="500" height="500"/>
			</defs>
			<clipPath id="SVGID_12_">
				<use xlink:href="#SVGID_11_"  style="overflow:visible;"/>
			</clipPath>
			<g class="st11">
				<path d="M342.7,58.2l-10.8-18.7c-4.8-8.3,1.2-18.7,10.8-18.7l0,0c9.6,0,15.6,10.4,10.8,18.7L342.7,58.2z"/>
				<path class="st10" d="M348.4,33.3v6.3h-3.8v-3.8h-3.8v3.8H337v-6.3h-1.9l7.6-7.6l7.6,7.6H348.4z M347.8,29.6v-3.2h-1.9v1.3
					L347.8,29.6z"/>
			</g>
		</g>
	</g>
	<path d="M429.9,58.8h-57.7c-3.3,0-5.9-2.6-5.9-5.9v-28c0-3.3,2.6-5.9,5.9-5.9h57.7c3.3,0,5.9,2.6,5.9,5.9v28
		C435.8,56.2,433.2,58.8,429.9,58.8z"/>
	<g>
		<path class="st10" d="M378.7,35.8v-4.2l-3.7-5.8h2.4l2.4,4l2.3-4h2.3l-3.7,5.8v4.2H378.7z"/>
		<path class="st10" d="M383.9,32c0-0.6,0.2-1.3,0.5-1.9s0.8-1.1,1.3-1.4c0.6-0.3,1.2-0.5,1.9-0.5c1.1,0,2,0.4,2.7,1.1
			s1.1,1.6,1.1,2.7s-0.4,2-1.1,2.7s-1.6,1.1-2.7,1.1c-0.7,0-1.3-0.2-1.9-0.5s-1.1-0.7-1.4-1.3S383.9,32.9,383.9,32z M385.9,32.1
			c0,0.7,0.2,1.3,0.5,1.7s0.8,0.6,1.3,0.6s0.9-0.2,1.3-0.6c0.3-0.4,0.5-0.9,0.5-1.7c0-0.7-0.2-1.3-0.5-1.6c-0.3-0.4-0.8-0.6-1.3-0.6
			s-0.9,0.2-1.3,0.6S385.9,31.4,385.9,32.1z"/>
		<path class="st10" d="M397.7,35.8v-1.1c-0.3,0.4-0.6,0.7-1,0.9s-0.9,0.3-1.4,0.3s-0.9-0.1-1.3-0.3s-0.7-0.5-0.8-0.9
			s-0.3-0.9-0.3-1.6v-4.6h1.9v3.3c0,1,0,1.6,0.1,1.9c0.1,0.2,0.2,0.4,0.4,0.5s0.4,0.2,0.7,0.2c0.3,0,0.6-0.1,0.9-0.3
			s0.4-0.4,0.5-0.7s0.1-0.9,0.1-2v-3.1h1.9v7.3h-1.7V35.8z"/>
		<path class="st10" d="M413.9,35.8h-2.2l-0.9-2.3h-4l-0.8,2.3h-2.1l3.9-10h2.1L413.9,35.8z M410.2,31.8l-1.4-3.7l-1.4,3.7H410.2z"
			/>
		<path class="st10" d="M416.8,35.8h-1.9v-7.3h1.8v1c0.3-0.5,0.6-0.8,0.8-1c0.2-0.2,0.5-0.2,0.8-0.2c0.4,0,0.9,0.1,1.3,0.4l-0.6,1.7
			c-0.3-0.2-0.6-0.3-0.9-0.3s-0.5,0.1-0.7,0.2s-0.3,0.4-0.4,0.8s-0.2,1.2-0.2,2.4L416.8,35.8L416.8,35.8z"/>
		<path class="st10" d="M424.6,33.5l1.9,0.3c-0.2,0.7-0.6,1.2-1.2,1.6c-0.5,0.4-1.2,0.6-2,0.6c-1.3,0-2.2-0.4-2.8-1.2
			c-0.5-0.7-0.7-1.5-0.7-2.5c0-1.2,0.3-2.1,0.9-2.8s1.4-1,2.4-1c1.1,0,1.9,0.4,2.6,1.1s0.9,1.8,0.9,3.3h-4.8c0,0.6,0.2,1,0.5,1.3
			s0.7,0.5,1.1,0.5c0.3,0,0.6-0.1,0.8-0.2S424.5,33.8,424.6,33.5z M424.7,31.5c0-0.6-0.2-1-0.4-1.3s-0.6-0.4-1-0.4s-0.8,0.2-1,0.5
			s-0.4,0.7-0.4,1.2C421.9,31.5,424.7,31.5,424.7,31.5z"/>
		<path class="st10" d="M386.6,50.8v-10h2v3.9h4v-3.9h2v10h-2v-4.4h-4v4.4H386.6z"/>
		<path class="st10" d="M400.9,48.5l1.9,0.3c-0.2,0.7-0.6,1.2-1.2,1.6c-0.5,0.4-1.2,0.6-2,0.6c-1.3,0-2.2-0.4-2.8-1.2
			c-0.5-0.7-0.7-1.5-0.7-2.5c0-1.2,0.3-2.1,0.9-2.8s1.4-1,2.4-1c1.1,0,1.9,0.4,2.6,1.1s0.9,1.8,0.9,3.3h-4.8c0,0.6,0.2,1,0.5,1.3
			s0.7,0.5,1.1,0.5c0.3,0,0.6-0.1,0.8-0.2S400.8,48.8,400.9,48.5z M401,46.5c0-0.6-0.2-1-0.4-1.3s-0.6-0.4-1-0.4s-0.8,0.2-1,0.5
			s-0.4,0.7-0.4,1.2H401z"/>
		<path class="st10" d="M406.3,50.8h-1.9v-7.3h1.8v1c0.3-0.5,0.6-0.8,0.8-1c0.2-0.2,0.5-0.2,0.8-0.2c0.4,0,0.9,0.1,1.3,0.4l-0.6,1.7
			c-0.3-0.2-0.6-0.3-0.9-0.3s-0.5,0.1-0.7,0.2s-0.3,0.4-0.4,0.8c-0.1,0.4-0.2,1.2-0.2,2.4L406.3,50.8L406.3,50.8z"/>
		<path class="st10" d="M414.1,48.5l1.9,0.3c-0.2,0.7-0.6,1.2-1.2,1.6c-0.5,0.4-1.2,0.6-2,0.6c-1.3,0-2.2-0.4-2.8-1.2
			c-0.5-0.7-0.7-1.5-0.7-2.5c0-1.2,0.3-2.1,0.9-2.8s1.4-1,2.4-1c1.1,0,1.9,0.4,2.6,1.1s0.9,1.8,0.9,3.3h-4.8c0,0.6,0.2,1,0.5,1.3
			s0.7,0.5,1.1,0.5c0.3,0,0.6-0.1,0.8-0.2S414,48.8,414.1,48.5z M414.2,46.5c0-0.6-0.2-1-0.4-1.3s-0.6-0.4-1-0.4s-0.8,0.2-1,0.5
			s-0.4,0.7-0.4,1.2H414.2z"/>
	</g>
	<path class="st9" d="M113.7,443.9H56.1c-3.3,0-5.9-2.6-5.9-5.9v-28c0-3.3,2.6-5.9,5.9-5.9h57.7c3.3,0,5.9,2.6,5.9,5.9v28
		C119.6,441.2,117,443.9,113.7,443.9z"/>
	<g>
		<path class="st10" d="M63.6,420.8l-2.4-10h2.1l1.5,6.9l1.8-6.9H69l1.8,7l1.5-7h2l-2.4,10h-2.1l-2-7.5l-2,7.5H63.6z"/>
		<path class="st10" d="M79.3,418.5l1.9,0.3c-0.2,0.7-0.6,1.2-1.2,1.6c-0.5,0.4-1.2,0.5-2,0.5c-1.3,0-2.2-0.4-2.8-1.2
			c-0.5-0.7-0.7-1.5-0.7-2.5c0-1.2,0.3-2.1,0.9-2.8c0.6-0.7,1.4-1,2.4-1c1.1,0,1.9,0.4,2.6,1.1c0.6,0.7,0.9,1.8,0.9,3.3h-4.8
			c0,0.6,0.2,1,0.5,1.3s0.7,0.5,1.1,0.5c0.3,0,0.6-0.1,0.8-0.2S79.2,418.9,79.3,418.5z M79.4,416.6c0-0.6-0.2-1-0.4-1.3
			c-0.3-0.3-0.6-0.4-1-0.4s-0.8,0.2-1,0.5c-0.3,0.3-0.4,0.7-0.4,1.2L79.4,416.6L79.4,416.6z"/>
		<path class="st10" d="M95.3,420.8h-2.2l-0.9-2.3h-4l-0.8,2.3h-2.1l3.9-10h2.1L95.3,420.8z M91.6,416.9l-1.4-3.7l-1.4,3.7H91.6z"/>
		<path class="st10" d="M98.2,420.8h-1.9v-7.3h1.8v1c0.3-0.5,0.6-0.8,0.8-1c0.2-0.2,0.5-0.2,0.8-0.2c0.4,0,0.9,0.1,1.3,0.4l-0.6,1.7
			c-0.3-0.2-0.6-0.3-0.9-0.3s-0.5,0.1-0.7,0.2s-0.3,0.4-0.4,0.8s-0.2,1.2-0.2,2.4L98.2,420.8L98.2,420.8z"/>
		<path class="st10" d="M106.1,418.5l1.9,0.3c-0.2,0.7-0.6,1.2-1.2,1.6c-0.5,0.4-1.2,0.5-2,0.5c-1.3,0-2.2-0.4-2.8-1.2
			c-0.5-0.7-0.7-1.5-0.7-2.5c0-1.2,0.3-2.1,0.9-2.8c0.6-0.7,1.4-1,2.4-1c1.1,0,1.9,0.4,2.6,1.1c0.6,0.7,0.9,1.8,0.9,3.3h-4.8
			c0,0.6,0.2,1,0.5,1.3s0.7,0.5,1.1,0.5c0.3,0,0.6-0.1,0.8-0.2S106,418.9,106.1,418.5z M106.2,416.6c0-0.6-0.2-1-0.4-1.3
			c-0.3-0.3-0.6-0.4-1-0.4s-0.8,0.2-1,0.5c-0.3,0.3-0.4,0.7-0.4,1.2L106.2,416.6L106.2,416.6z"/>
		<path class="st10" d="M70.4,435.8v-10h2v3.9h4v-3.9h2v10h-2v-4.4h-4v4.4H70.4z"/>
		<path class="st10" d="M84.7,433.5l1.9,0.3c-0.2,0.7-0.6,1.2-1.2,1.6c-0.5,0.4-1.2,0.5-2,0.5c-1.3,0-2.2-0.4-2.8-1.2
			c-0.5-0.7-0.7-1.5-0.7-2.5c0-1.2,0.3-2.1,0.9-2.8c0.6-0.7,1.4-1,2.4-1c1.1,0,1.9,0.4,2.6,1.1c0.6,0.7,0.9,1.8,0.9,3.3h-4.8
			c0,0.6,0.2,1,0.5,1.3s0.7,0.5,1.1,0.5c0.3,0,0.6-0.1,0.8-0.2S84.6,433.9,84.7,433.5z M84.8,431.6c0-0.6-0.2-1-0.4-1.3
			c-0.3-0.3-0.6-0.4-1-0.4s-0.8,0.2-1,0.5c-0.3,0.3-0.4,0.7-0.4,1.2L84.8,431.6L84.8,431.6z"/>
		<path class="st10" d="M90.1,435.8h-1.9v-7.3H90v1c0.3-0.5,0.6-0.8,0.8-1c0.2-0.2,0.5-0.2,0.8-0.2c0.4,0,0.9,0.1,1.3,0.4l-0.6,1.7
			c-0.3-0.2-0.6-0.3-0.9-0.3s-0.5,0.1-0.7,0.2s-0.3,0.4-0.4,0.8s-0.2,1.2-0.2,2.4L90.1,435.8L90.1,435.8z"/>
		<path class="st10" d="M97.9,433.5l1.9,0.3c-0.2,0.7-0.6,1.2-1.2,1.6c-0.5,0.4-1.2,0.5-2,0.5c-1.3,0-2.2-0.4-2.8-1.2
			c-0.5-0.7-0.7-1.5-0.7-2.5c0-1.2,0.3-2.1,0.9-2.8c0.6-0.7,1.4-1,2.4-1c1.1,0,1.9,0.4,2.6,1.1c0.6,0.7,0.9,1.8,0.9,3.3h-4.8
			c0,0.6,0.2,1,0.5,1.3s0.7,0.5,1.1,0.5c0.3,0,0.6-0.1,0.8-0.2S97.8,433.9,97.9,433.5z M98,431.6c0-0.6-0.2-1-0.4-1.3
			c-0.3-0.3-0.6-0.4-1-0.4s-0.8,0.2-1,0.5c-0.3,0.3-0.4,0.7-0.4,1.2L98,431.6L98,431.6z"/>
	</g>
	<g>
		<g>
			<line class="st12" x1="331.5" y1="43.6" x2="330.3" y2="47.4"/>
			<polyline class="st13" points="329.2,51.3 263.6,273.7 227.9,408.1 			"/>
			<polyline class="st12" points="227.4,410 226.3,413.9 222.5,412.8 			"/>
			<line class="st14" x1="218.5" y1="411.7" x2="102.4" y2="379.4"/>
			<line class="st12" x1="100.5" y1="378.8" x2="96.6" y2="377.8"/>
		</g>
	</g>
</g>
<g id="Designed_by_Freepik">
</g>
</svg>
